<?xml version="1.0" encoding="UTF-8"?>
<svg id="uuid-13744571-4c47-43ce-9446-764669413415" data-name="图层 2" xmlns="http://www.w3.org/2000/svg" viewBox="0 0 102.4 117.02">
  <g>
    <path d="M0,106.39V33.41c0-.3,.26-.54,.56-.5,16,2.3,45.15,6.33,49.01,6.86,.25,.03,.43,.24,.43,.49V113.25c0,.3-.27,.54-.57,.49-16.43-2.42-32.44-4.47-49-6.85-.25-.04-.43-.25-.43-.5Z" style="fill: #348c39; fill-rule: evenodd;"/>
    <path d="M27.56,0l22,2.87c.25,.03,.44,.24,.44,.5V37.36c0,.3-.27,.53-.56,.5l-22-2.87c-.25-.03-.44-.24-.44-.5V.5c0-.3,.27-.53,.56-.5Z" style="fill: #f5ca1d; fill-rule: evenodd;"/>
  </g>
  <g>
    <path d="M102.4,10.62V83.61c0,.3-.26,.54-.56,.5-16-2.3-45.15-6.33-49.01-6.86-.25-.03-.43-.24-.43-.49V3.77c0-.3,.27-.54,.57-.49,16.43,2.42,32.44,4.47,49,6.85,.25,.04,.43,.25,.43,.5Z" style="fill: #d1251a; fill-rule: evenodd;"/>
    <path d="M74.84,117.01l-22-2.87c-.25-.03-.44-.24-.44-.5v-33.99c0-.3,.27-.53,.56-.5l22,2.87c.25,.03,.44,.24,.44,.5v33.99c0,.3-.27,.53-.56,.5Z" style="fill: #f5ca1d; fill-rule: evenodd;"/>
  </g>
</svg>